<?xml version="1.0" encoding="UTF-8" standalone="no"?>
<svg width="91px" height="91px" viewBox="0 0 91 91" version="1.1" xmlns="http://www.w3.org/2000/svg" xmlns:xlink="http://www.w3.org/1999/xlink">
    <!-- Generator: Sketch 44.1 (41455) - http://www.bohemiancoding.com/sketch -->
    <title>Web/Element/Program/Illustrations/Education</title>
    <desc>Created with Sketch.</desc>
    <defs></defs>
    <g id="Symbols" stroke="none" stroke-width="1" fill="none" fill-rule="evenodd">
        <g id="Web/Element/Program/Illustrations/Education" fill="#00277E">
            <g id="Illustrations/Education">
                <path d="M40.2668592,32.0422535 C44.6906127,32.0422535 48.2774225,35.6290634 48.2774225,40.0528169 C48.2774225,44.4772113 44.6906127,48.0633803 40.2668592,48.0633803 C35.8424648,48.0633803 32.2562958,44.4772113 32.2562958,40.0528169 C32.2562958,35.6290634 35.8424648,32.0422535 40.2668592,32.0422535 L40.2668592,32.0422535 Z M54.8198099,27.4807183 L56.3924437,27.4807183 C56.4808803,27.4807183 56.5526549,27.5531338 56.5526549,27.6409296 C56.5526549,27.7293662 56.4808803,27.8011408 56.3924437,27.8011408 L54.8198099,27.8011408 C54.7313732,27.8011408 54.6595986,27.7293662 54.6595986,27.6409296 C54.6595986,27.5531338 54.7313732,27.4807183 54.8198099,27.4807183 L54.8198099,27.4807183 Z M56.0374155,23.5119648 C56.1002183,23.449162 56.2014718,23.449162 56.2642746,23.5119648 L57.3761408,24.623831 C57.4389437,24.6866338 57.4389437,24.7878873 57.3761408,24.8506901 C57.3447394,24.8820915 57.3043662,24.8974718 57.2627113,24.8974718 C57.2216972,24.8974718 57.1813239,24.8820915 57.1499225,24.8506901 L56.0374155,23.7381831 C55.9752535,23.6760211 55.9752535,23.5747676 56.0374155,23.5119648 L56.0374155,23.5119648 Z M60.5598592,24.5744859 C62.3843451,24.5744859 63.8621338,26.0529155 63.8621338,27.8767606 C63.8621338,29.1308944 63.1552817,30.2087958 62.1254437,30.7676127 C62.1260845,30.7797887 62.132493,30.7906831 62.132493,30.8028592 L62.132493,31.0835493 C62.132493,31.3091268 61.9479296,31.4936901 61.7223521,31.4936901 L59.5550141,31.4936901 C59.3294366,31.4936901 59.1448732,31.3091268 59.1448732,31.0835493 L59.1448732,30.849 C58.0323662,30.3183803 57.2575845,29.1917746 57.2575845,27.8767606 C57.2575845,26.0529155 58.7360141,24.5744859 60.5598592,24.5744859 L60.5598592,24.5744859 Z M60.4784718,22.1367113 C60.4784718,22.0489155 60.5502465,21.9765 60.6386831,21.9765 C60.7271197,21.9765 60.7988944,22.0489155 60.7988944,22.1367113 L60.7988944,23.7099859 C60.7988944,23.7977817 60.7271197,23.8701972 60.6386831,23.8701972 C60.5502465,23.8701972 60.4784718,23.7977817 60.4784718,23.7099859 L60.4784718,22.1367113 Z M63.9005845,24.623831 L65.0124507,23.5119648 C65.0752535,23.449162 65.176507,23.449162 65.2393099,23.5119648 C65.3014718,23.5747676 65.3014718,23.6760211 65.2393099,23.7381831 L64.1268028,24.8506901 C64.0960423,24.8820915 64.0550282,24.8974718 64.0140141,24.8974718 C63.9723592,24.8974718 63.9319859,24.8820915 63.9005845,24.8506901 C63.8377817,24.7878873 63.8377817,24.6866338 63.9005845,24.623831 L63.9005845,24.623831 Z M66.4601197,27.6409296 C66.4601197,27.7293662 66.3883451,27.8011408 66.2999085,27.8011408 L64.7272746,27.8011408 C64.638838,27.8011408 64.5670634,27.7293662 64.5670634,27.6409296 C64.5670634,27.5531338 64.638838,27.4807183 64.7272746,27.4807183 L66.2999085,27.4807183 C66.3883451,27.4807183 66.4601197,27.5531338 66.4601197,27.6409296 L66.4601197,27.6409296 Z M61.9754859,32.5472394 C61.9754859,32.6875845 61.8601338,32.8022958 61.7204296,32.8022958 L61.6550634,32.8022958 C61.6563451,32.8119085 61.660831,32.8195986 61.660831,32.8298521 L61.660831,32.9650704 C61.660831,33.107338 61.5441972,33.223331 61.4019296,33.223331 L59.8754366,33.223331 C59.733169,33.223331 59.6165352,33.107338 59.6165352,32.9650704 L59.6165352,32.8298521 C59.6165352,32.8195986 59.6210211,32.8119085 59.621662,32.8022958 L59.5575775,32.8022958 C59.4172324,32.8022958 59.3018803,32.6875845 59.3018803,32.5472394 L59.3018803,31.9570211 C59.3018803,31.8160352 59.4172324,31.7013239 59.5575775,31.7013239 L61.7204296,31.7013239 C61.8601338,31.7013239 61.9754859,31.8160352 61.9754859,31.9570211 L61.9754859,32.5472394 Z M0,0 C0,25.2877465 10.3182465,48.1633521 26.9693239,64.6548592 L26.9693239,58.7398592 C26.9693239,54.583338 30.3382465,51.2144155 34.4947676,51.2144155 L56.8589789,51.2144155 C56.8589789,51.2144155 56.8487254,39.3209718 56.8487254,39.2517606 C56.8487254,37.1286408 58.5706761,35.4066901 60.6937958,35.4066901 C62.7509085,35.4066901 64.4254366,37.0229014 64.5286127,39.0543803 L64.5491197,54.4737535 C64.5491197,56.9307535 62.5567324,58.9225 60.0997324,58.9225 L52.6031268,58.9045563 L52.6031268,82.5190563 C64.2703521,87.9572676 77.2788662,91 91,91 L91,0 C74.5602809,0 62.2304915,0 54.0106319,0 C42.0082693,0 24.0047253,0 0,0 Z" id="Fill-7"></path>
            </g>
        </g>
    </g>
</svg>