<?xml version="1.0" encoding="UTF-8" standalone="no"?>
<svg width="91px" height="91px" viewBox="0 0 91 91" version="1.1" xmlns="http://www.w3.org/2000/svg" xmlns:xlink="http://www.w3.org/1999/xlink">
    <!-- Generator: Sketch 44.1 (41455) - http://www.bohemiancoding.com/sketch -->
    <title>Web/Element/Program/Illustrations/Live-in@1x</title>
    <desc>Created with Sketch.</desc>
    <defs></defs>
    <g id="Symbols" stroke="none" stroke-width="1" fill="none" fill-rule="evenodd">
        <g id="Web/Element/Program/Illustrations/Live-in" fill="#000000">
            <g id="Illustrations/Live-in">
                <polygon id="Fill-1" points="25.6338028 90.789162 79.4160845 90.789162 79.4160845 84.5915493 25.6338028 84.5915493"></polygon>
                <path d="M84.3877606,50.7562113 C84.2044789,51.4393521 83.5040352,51.845007 82.818331,51.663007 L52.8069155,43.6236056 L22.9448169,51.7424718 C22.8320282,51.7725915 22.7198803,51.787331 22.6083732,51.787331 C22.0437887,51.787331 21.5272676,51.4124366 21.3721831,50.8420845 C21.186338,50.1589437 21.5894296,49.4546549 22.2725704,49.2688099 L52.8017887,40.9679437 L83.4816056,49.1867817 C84.1647465,49.3694225 84.5710423,50.0724296 84.3877606,50.7562113 M72.7045141,77.4499718 C70.6134366,77.4499718 68.9184014,75.7549366 68.9184014,73.6645 C68.9184014,71.5740634 70.6134366,69.8790282 72.7045141,69.8790282 C74.7949507,69.8790282 76.4899859,71.5740634 76.4899859,73.6645 C76.4899859,75.7549366 74.7949507,77.4499718 72.7045141,77.4499718 M0,90.9993592 L0,91 L22.5923521,91 L22.5923521,80.6689366 L22.5359577,80.6689366 L22.5359577,73.3780423 C22.5359577,71.5195915 24.1387113,70.0129648 26.1150775,70.0129648 L63.3738099,70.0129648 C65.3508169,70.0129648 66.9529296,71.5195915 66.9529296,73.3780423 L66.9529296,78.2926831 L79.7397113,78.2926831 L79.7397113,62.4779085 L83.1041479,62.4779085 L83.1041479,91 L91,91 L91,0 C40.7423662,0 0,40.7417254 0,90.9993592" id="Fill-2"></path>
            </g>
        </g>
    </g>
</svg>