<?xml version="1.0" encoding="UTF-8"?>
<svg width="20px" height="20px" viewBox="0 0 20 20" version="1.1" xmlns="http://www.w3.org/2000/svg" xmlns:xlink="http://www.w3.org/1999/xlink">
    <!-- Generator: Sketch 44.1 (41455) - http://www.bohemiancoding.com/sketch -->
    <title>icon/cross@1.5x</title>
    <desc>Created with Sketch.</desc>
    <defs>
        <path d="M15,13.047138 C15,12.8367003 14.9158249,12.6262626 14.7643098,12.4747475 L12.2895623,10 L14.7643098,7.52525253 C14.9158249,7.37373737 15,7.16329966 15,6.95286195 C15,6.74242424 14.9158249,6.53198653 14.7643098,6.38047138 L13.6195286,5.23569024 C13.4680135,5.08417508 13.2575758,5 13.047138,5 C12.8367003,5 12.6262626,5.08417508 12.4747475,5.23569024 L10,7.71043771 L7.52525253,5.23569024 C7.37373737,5.08417508 7.16329966,5 6.95286195,5 C6.74242424,5 6.53198653,5.08417508 6.38047138,5.23569024 L5.23569024,6.38047138 C5.08417508,6.53198653 5,6.74242424 5,6.95286195 C5,7.16329966 5.08417508,7.37373737 5.23569024,7.52525253 L7.71043771,10 L5.23569024,12.4747475 C5.08417508,12.6262626 5,12.8367003 5,13.047138 C5,13.2575758 5.08417508,13.4680135 5.23569024,13.6195286 L6.38047138,14.7643098 C6.53198653,14.9158249 6.74242424,15 6.95286195,15 C7.16329966,15 7.37373737,14.9158249 7.52525253,14.7643098 L10,12.2895623 L12.4747475,14.7643098 C12.6262626,14.9158249 12.8367003,15 13.047138,15 C13.2575758,15 13.4680135,14.9158249 13.6195286,14.7643098 L14.7643098,13.6195286 C14.9158249,13.4680135 15,13.2575758 15,13.047138 Z" id="path-1"></path>
    </defs>
    <g id="Symbols" stroke="none" stroke-width="1" fill="none" fill-rule="evenodd">
        <g id="icon/cross">
            <rect id="Outline" x="0" y="0" width="20" height="20"></rect>
            <mask id="mask-2" fill="white">
                <use xlink:href="#path-1"></use>
            </mask>
            <use id="Times---FontAwesome" fill="#ffffff" xlink:href="#path-1"></use>
            <g id="Mixin/Fill/Black" mask="url(#mask-2)" fill="#ffffff">
                <g transform="translate(-39.000000, -39.000000)" id="Mixin/Fill/Black-Copy">
                    <rect x="0" y="0" width="100" height="100"></rect>
                </g>
            </g>
        </g>
    </g>
</svg>