<?xml version="1.0" encoding="UTF-8"?>
<svg width="16px" height="13px" viewBox="0 0 16 13" version="1.1" xmlns="http://www.w3.org/2000/svg" xmlns:xlink="http://www.w3.org/1999/xlink">
    <!-- Generator: Sketch 44.1 (41455) - http://www.bohemiancoding.com/sketch -->
    <title>Group 4</title>
    <desc>Created with Sketch.</desc>
    <defs>
        <path d="M17.1400003,14.7241669 C17.1400003,14.3791799 16.854154,14.0933336 16.509167,14.0933336 L2.63083335,14.0933336 C2.28584636,14.0933336 2,14.3791799 2,14.7241669 L2,15.9858336 C2,16.3308206 2.28584636,16.616667 2.63083335,16.616667 L16.509167,16.616667 C16.854154,16.616667 17.1400003,16.3308206 17.1400003,15.9858336 L17.1400003,14.7241669 Z M17.1400003,9.67750013 C17.1400003,9.33251314 16.854154,9.04666678 16.509167,9.04666678 L2.63083335,9.04666678 C2.28584636,9.04666678 2,9.33251314 2,9.67750013 L2,10.9391668 C2,11.2841538 2.28584636,11.5700002 2.63083335,11.5700002 L16.509167,11.5700002 C16.854154,11.5700002 17.1400003,11.2841538 17.1400003,10.9391668 L17.1400003,9.67750013 Z M17.1400003,4.63083335 C17.1400003,4.28584636 16.854154,4 16.509167,4 L2.63083335,4 C2.28584636,4 2,4.28584636 2,4.63083335 L2,5.89250004 C2,6.23748703 2.28584636,6.52333339 2.63083335,6.52333339 L16.509167,6.52333339 C16.854154,6.52333339 17.1400003,6.23748703 17.1400003,5.89250004 L17.1400003,4.63083335 Z" id="path-1"></path>
    </defs>
    <g id="Symbols" stroke="none" stroke-width="1" fill="none" fill-rule="evenodd">
        <g id="icon/hamburger" transform="translate(-2.000000, -4.000000)">
            <g id="Group-4">
                <rect id="Outline" x="0" y="0" width="20" height="20"></rect>
                <mask id="mask-2" fill="white">
                    <use xlink:href="#path-1"></use>
                </mask>
                <use id="Bars---FontAwesome" fill="#4263AB" xlink:href="#path-1"></use>
                <g id="Mixin/Fill/Black" mask="url(#mask-2)" fill="#4263AB">
                    <g transform="translate(-39.4263AB, -39.4263AB)" id="Mixin/Fill/Black-Copy">
                        <rect x="0" y="0" width="100" height="100"></rect>
                    </g>
                </g>
            </g>
        </g>
    </g>
</svg>