<?xml version="1.0" encoding="UTF-8" standalone="no"?>
<svg width="91px" height="91px" viewBox="0 0 91 91" version="1.1" xmlns="http://www.w3.org/2000/svg" xmlns:xlink="http://www.w3.org/1999/xlink">
    <!-- Generator: Sketch 44.1 (41455) - http://www.bohemiancoding.com/sketch -->
    <title>Web/Element/Program/Illustrations/Sports@1x</title>
    <desc>Created with Sketch.</desc>
    <defs></defs>
    <g id="Symbols" stroke="none" stroke-width="1" fill="none" fill-rule="evenodd">
        <g id="Web/Element/Program/Illustrations/Sports" fill="#E2CF00">
            <g id="Illustrations/Sports">
                <path d="M52.635169,26.8603803 C55.0940915,25.6011197 58.1086268,26.5739225 59.3678873,29.0328451 C60.6271479,31.4917676 59.6543451,34.5063028 57.1947817,35.7655634 C54.7358592,37.0248239 51.7213239,36.0520211 50.4620634,33.5930986 C49.2034437,31.1335352 50.1756056,28.1196408 52.635169,26.8603803 L52.635169,26.8603803 Z M0,91 C23.1787254,91 44.3285352,82.330007 60.3958028,68.0615915 C55.7567254,65.3642746 50.8888662,64.2741972 46.0479225,68.2403873 C42.6725915,71.0062746 37.2125915,71.4779366 33.5238873,70.3808099 L31.3437324,67.2630986 C35.0913944,69.366993 41.3114366,69.3881408 45.4070775,66.0320352 C50.3563239,61.9767676 55.9758944,63.2027042 60.7078944,66.0320352 C61.1000915,66.2672254 61.5006197,66.483831 61.904993,66.6914648 C63.5692676,65.1457465 65.1752254,63.5391479 66.7203028,61.8742324 C64.6093592,61.5166408 62.5887746,60.6899507 60.7078944,59.5646268 C55.9758944,56.7352958 50.3563239,55.51 45.4070775,59.5646268 C40.6750775,63.4423803 33.1028521,62.8137113 29.7909648,59.6697254 C28.3907183,58.3406127 26.4265282,57.5568592 24.4110704,57.33 C22.6167042,54.8762042 20.5390845,52.271169 18.4787676,51.3880845 C16.144169,50.3877254 12.9687817,49.4053099 11.1410915,48.7196056 C8.47261268,47.7192465 6.68465493,41.8837113 10.8072113,43.3826479 C14.4760493,44.7168873 26.8059085,48.6427042 32.0473803,49.648831 C37.2074648,50.6395775 46.711838,51.179169 56.5802113,51.4662676 L53.4234085,45.3026197 L49.2617606,47.4468873 C47.8961197,48.1466901 46.2215915,47.6064577 45.5224296,46.2408169 L41.1339225,37.6695141 C40.6244507,36.5057394 41.094831,35.1304859 42.2380986,34.5447535 C43.4185352,33.9404366 44.8655634,34.4069718 45.4698803,35.5874085 C45.4897465,35.6258592 48.8689225,42.2400211 48.8689225,42.2400211 C57.156331,37.9959178 61.3000352,35.8738662 61.3000352,35.8738662 C61.3000352,35.8738662 66.4421761,35.6047113 67.6258169,37.9149577 L74.6039789,51.5425282 L74.1887113,51.7552887 C74.4098028,51.7565704 74.6302535,51.7578521 74.8487817,51.7591338 C85.0298873,37.0639155 91,19.2304789 91,0 L60.4622562,0 L0,0 L0,91 Z" id="Fill-10"></path>
            </g>
        </g>
    </g>
</svg>