<?xml version="1.0" encoding="UTF-8" standalone="no"?>
<svg width="91px" height="91px" viewBox="0 0 91 91" version="1.1" xmlns="http://www.w3.org/2000/svg" xmlns:xlink="http://www.w3.org/1999/xlink">
    <!-- Generator: Sketch 44.1 (41455) - http://www.bohemiancoding.com/sketch -->
    <title>Web/Element/Program/Illustrations/Support@1x</title>
    <desc>Created with Sketch.</desc>
    <defs></defs>
    <g id="Symbols" stroke="none" stroke-width="1" fill="none" fill-rule="evenodd">
        <g id="Web/Element/Program/Illustrations/Support" fill="#A70000">
            <g id="Illustrations/Support">
                <path d="M61.8460352,74.3239296 C61.7954085,74.3925 61.7524718,74.466838 61.6915915,74.5283592 C61.6473732,74.5719366 61.5961056,74.6046197 61.5493239,74.6424296 C61.4525563,74.7199718 61.3500211,74.7866197 61.2391549,74.8410915 C60.9635915,74.9775915 60.6540634,75.0532113 60.3201831,75.0532113 C59.5088732,75.0532113 58.583493,74.657169 57.8381901,73.9112254 C56.6032817,72.6769577 56.3277183,70.9518028 57.2204155,70.0578239 C57.3626831,69.9161972 57.5299437,69.8117394 57.7087394,69.7277887 C57.8458803,69.6637042 57.9887887,69.6124366 58.1425915,69.5816761 C58.2874225,69.552838 58.4367394,69.5336127 58.5918239,69.5336127 C58.6418099,69.5336127 58.6930775,69.5400211 58.7437042,69.5425845 C59.5178451,69.5880845 60.3740141,69.9751549 61.0744577,70.6755986 C62.223493,71.8246338 62.5285352,73.3908592 61.8460352,74.3239296 M50.1467676,66.4460211 C46.1645563,66.4460211 42.9372606,63.2174437 42.9372606,59.2365141 C42.9372606,55.2543028 46.1645563,52.027007 50.1467676,52.027007 C54.128338,52.027007 57.3562746,55.2543028 57.3562746,59.2365141 C57.3562746,63.2174437 54.128338,66.4460211 50.1467676,66.4460211 M30.5420352,62.9265 C26.1182817,62.9265 22.5314718,59.3396901 22.5314718,54.9159366 C22.5314718,50.4915423 26.1182817,46.9053732 30.5420352,46.9053732 C34.9664296,46.9053732 38.5525986,50.4915423 38.5525986,54.9159366 C38.5525986,59.3396901 34.9664296,62.9265 30.5420352,62.9265 M0,0 L0,0 L0,91 L17.2445,91 L17.2445,72.4853451 C17.2445,68.9459577 20.1142042,66.0768944 23.6529507,66.0768944 L36.4698521,66.0768944 C38.7237042,66.0768944 40.701993,67.2432324 41.8439789,69.0017113 C39.3421197,69.8745423 37.5381408,72.2527183 37.5381408,75.0487254 L37.5381408,91 L38.1789859,91 L38.1789859,75.0487254 C38.1789859,72.4840634 39.8541549,70.3135211 42.1688873,69.5637324 C42.7289859,69.3823732 43.3262535,69.2811197 43.9465915,69.2811197 L55.4818028,69.2811197 C55.9835845,69.2811197 56.4667817,69.3522535 56.9307535,69.4720915 C56.8769225,69.5175915 56.8173239,69.5547606 56.767338,69.6047465 C55.6067676,70.7659577 55.8778451,72.8563944 57.3851127,74.3643028 C58.2297465,75.2089366 59.2993169,75.6940563 60.3201831,75.6940563 C60.6540634,75.6940563 60.9629507,75.6357394 61.2494085,75.5351268 L61.2494085,76.2022465 L61.2494085,91 L91,91 L91,90.9993592 C91,40.7417254 50.2576338,0 0,0" id="Fill-4"></path>
            </g>
        </g>
    </g>
</svg>